<mxfile host="Electron" agent="Mozilla/5.0 (X11; Linux x86_64) AppleWebKit/537.36 (KHTML, like Gecko) draw.io/24.7.17 Chrome/128.0.6613.36 Electron/32.0.1 Safari/537.36" version="24.7.17">
  <diagram name="Page-1" id="rOZ1nbf3fq7kFRy8ewoV">
    <mxGraphModel dx="1839" dy="667" grid="1" gridSize="10" guides="1" tooltips="1" connect="1" arrows="1" fold="1" page="1" pageScale="1" pageWidth="850" pageHeight="1100" math="0" shadow="0">
      <root>
        <mxCell id="0" />
        <mxCell id="1" parent="0" />
        <mxCell id="fVfCCpdempKYAxnG8ScT-13" value="" style="rounded=0;whiteSpace=wrap;html=1;" vertex="1" parent="1">
          <mxGeometry x="647.5" y="590" width="460" height="340" as="geometry" />
        </mxCell>
        <mxCell id="fVfCCpdempKYAxnG8ScT-10" value="" style="rounded=0;whiteSpace=wrap;html=1;" vertex="1" parent="1">
          <mxGeometry x="-5" y="580" width="470" height="380" as="geometry" />
        </mxCell>
        <mxCell id="fVfCCpdempKYAxnG8ScT-3" value="数据库" style="fontColor=#0066CC;verticalAlign=top;verticalLabelPosition=bottom;labelPosition=center;align=center;html=1;outlineConnect=0;fillColor=#CCCCCC;strokeColor=#6881B3;gradientColor=none;gradientDirection=north;strokeWidth=2;shape=mxgraph.networks.storage;" vertex="1" parent="1">
          <mxGeometry x="180" y="590" width="80" height="80" as="geometry" />
        </mxCell>
        <mxCell id="fVfCCpdempKYAxnG8ScT-5" value="前端" style="fontColor=#0066CC;verticalAlign=top;verticalLabelPosition=bottom;labelPosition=center;align=center;html=1;outlineConnect=0;fillColor=#CCCCCC;strokeColor=#6881B3;gradientColor=none;gradientDirection=north;strokeWidth=2;shape=mxgraph.networks.pc;" vertex="1" parent="1">
          <mxGeometry x="40" y="807.5" width="100" height="70" as="geometry" />
        </mxCell>
        <mxCell id="fVfCCpdempKYAxnG8ScT-7" value="" style="fontColor=#0066CC;verticalAlign=top;verticalLabelPosition=bottom;labelPosition=center;align=center;html=1;outlineConnect=0;fillColor=#CCCCCC;strokeColor=#6881B3;gradientColor=none;gradientDirection=north;strokeWidth=2;shape=mxgraph.networks.users;" vertex="1" parent="1">
          <mxGeometry x="-120" y="812.5" width="60" height="65" as="geometry" />
        </mxCell>
        <mxCell id="fVfCCpdempKYAxnG8ScT-8" value="服务器后端" style="fontColor=#0066CC;verticalAlign=top;verticalLabelPosition=bottom;labelPosition=center;align=center;html=1;outlineConnect=0;fillColor=#CCCCCC;strokeColor=#6881B3;gradientColor=none;gradientDirection=north;strokeWidth=2;shape=mxgraph.networks.web_server;" vertex="1" parent="1">
          <mxGeometry x="825" y="790" width="105" height="105" as="geometry" />
        </mxCell>
        <mxCell id="fVfCCpdempKYAxnG8ScT-9" value="后端" style="fontColor=#0066CC;verticalAlign=top;verticalLabelPosition=bottom;labelPosition=center;align=center;html=1;outlineConnect=0;fillColor=#CCCCCC;strokeColor=#6881B3;gradientColor=none;gradientDirection=north;strokeWidth=2;shape=mxgraph.networks.server;" vertex="1" parent="1">
          <mxGeometry x="330" y="790" width="70" height="80" as="geometry" />
        </mxCell>
        <mxCell id="fVfCCpdempKYAxnG8ScT-11" value="&lt;font style=&quot;font-size: 18px;&quot;&gt;客户端&lt;/font&gt;" style="text;html=1;align=center;verticalAlign=middle;whiteSpace=wrap;rounded=0;" vertex="1" parent="1">
          <mxGeometry x="10" y="590" width="60" height="30" as="geometry" />
        </mxCell>
        <mxCell id="fVfCCpdempKYAxnG8ScT-12" value="数据库" style="fontColor=#0066CC;verticalAlign=top;verticalLabelPosition=bottom;labelPosition=center;align=center;html=1;outlineConnect=0;fillColor=#CCCCCC;strokeColor=#6881B3;gradientColor=none;gradientDirection=north;strokeWidth=2;shape=mxgraph.networks.storage;" vertex="1" parent="1">
          <mxGeometry x="820" y="630" width="100" height="100" as="geometry" />
        </mxCell>
        <mxCell id="fVfCCpdempKYAxnG8ScT-14" value="&lt;font style=&quot;font-size: 18px;&quot;&gt;服务器端&lt;/font&gt;" style="text;html=1;align=center;verticalAlign=middle;whiteSpace=wrap;rounded=0;" vertex="1" parent="1">
          <mxGeometry x="660" y="600" width="80" height="30" as="geometry" />
        </mxCell>
        <mxCell id="fVfCCpdempKYAxnG8ScT-16" value="" style="endArrow=classic;html=1;rounded=0;" edge="1" parent="1" source="fVfCCpdempKYAxnG8ScT-7" target="fVfCCpdempKYAxnG8ScT-5">
          <mxGeometry width="50" height="50" relative="1" as="geometry">
            <mxPoint x="-190" y="950" as="sourcePoint" />
            <mxPoint x="-140" y="900" as="targetPoint" />
          </mxGeometry>
        </mxCell>
        <mxCell id="fVfCCpdempKYAxnG8ScT-17" value="" style="endArrow=classic;html=1;rounded=0;exitX=1;exitY=1;exitDx=0;exitDy=0;exitPerimeter=0;entryX=0;entryY=0.5;entryDx=0;entryDy=0;entryPerimeter=0;" edge="1" parent="1" source="fVfCCpdempKYAxnG8ScT-9" target="fVfCCpdempKYAxnG8ScT-8">
          <mxGeometry relative="1" as="geometry">
            <mxPoint x="300" y="1010" as="sourcePoint" />
            <mxPoint x="400" y="1010" as="targetPoint" />
          </mxGeometry>
        </mxCell>
        <mxCell id="fVfCCpdempKYAxnG8ScT-18" value="" style="shape=message;html=1;outlineConnect=0;" vertex="1" parent="fVfCCpdempKYAxnG8ScT-17">
          <mxGeometry width="20" height="14" relative="1" as="geometry">
            <mxPoint x="-10" y="-7" as="offset" />
          </mxGeometry>
        </mxCell>
        <mxCell id="fVfCCpdempKYAxnG8ScT-19" value="" style="endArrow=classic;html=1;rounded=0;entryX=1;entryY=0.15;entryDx=0;entryDy=0;entryPerimeter=0;" edge="1" parent="1" source="fVfCCpdempKYAxnG8ScT-8" target="fVfCCpdempKYAxnG8ScT-9">
          <mxGeometry relative="1" as="geometry">
            <mxPoint x="880" y="860" as="sourcePoint" />
            <mxPoint x="840" y="920" as="targetPoint" />
          </mxGeometry>
        </mxCell>
        <mxCell id="fVfCCpdempKYAxnG8ScT-20" value="" style="shape=message;html=1;outlineConnect=0;" vertex="1" parent="fVfCCpdempKYAxnG8ScT-19">
          <mxGeometry width="20" height="14" relative="1" as="geometry">
            <mxPoint x="-10" y="-7" as="offset" />
          </mxGeometry>
        </mxCell>
        <mxCell id="fVfCCpdempKYAxnG8ScT-25" value="" style="endArrow=classic;html=1;rounded=0;" edge="1" parent="1" source="fVfCCpdempKYAxnG8ScT-3" target="fVfCCpdempKYAxnG8ScT-5">
          <mxGeometry width="50" height="50" relative="1" as="geometry">
            <mxPoint x="-50" y="855" as="sourcePoint" />
            <mxPoint x="90" y="855" as="targetPoint" />
          </mxGeometry>
        </mxCell>
        <mxCell id="fVfCCpdempKYAxnG8ScT-26" value="" style="endArrow=classic;html=1;rounded=0;exitX=0.5;exitY=0;exitDx=0;exitDy=0;exitPerimeter=0;" edge="1" parent="1" source="fVfCCpdempKYAxnG8ScT-9" target="fVfCCpdempKYAxnG8ScT-3">
          <mxGeometry width="50" height="50" relative="1" as="geometry">
            <mxPoint x="140" y="825" as="sourcePoint" />
            <mxPoint x="210" y="730" as="targetPoint" />
          </mxGeometry>
        </mxCell>
        <mxCell id="fVfCCpdempKYAxnG8ScT-27" value="" style="endArrow=classic;html=1;rounded=0;entryX=0;entryY=1;entryDx=0;entryDy=0;entryPerimeter=0;" edge="1" parent="1" source="fVfCCpdempKYAxnG8ScT-5" target="fVfCCpdempKYAxnG8ScT-9">
          <mxGeometry width="50" height="50" relative="1" as="geometry">
            <mxPoint x="140" y="825" as="sourcePoint" />
            <mxPoint x="210" y="730" as="targetPoint" />
          </mxGeometry>
        </mxCell>
        <mxCell id="fVfCCpdempKYAxnG8ScT-28" value="" style="endArrow=classic;html=1;rounded=0;entryX=1.008;entryY=0.333;entryDx=0;entryDy=0;entryPerimeter=0;exitX=0;exitY=0.15;exitDx=0;exitDy=0;exitPerimeter=0;" edge="1" parent="1" source="fVfCCpdempKYAxnG8ScT-9" target="fVfCCpdempKYAxnG8ScT-5">
          <mxGeometry width="50" height="50" relative="1" as="geometry">
            <mxPoint x="190" y="855" as="sourcePoint" />
            <mxPoint x="300" y="855" as="targetPoint" />
          </mxGeometry>
        </mxCell>
        <mxCell id="fVfCCpdempKYAxnG8ScT-30" value="" style="endArrow=classic;html=1;rounded=0;exitX=0;exitY=0.14;exitDx=0;exitDy=0;exitPerimeter=0;" edge="1" parent="1" source="fVfCCpdempKYAxnG8ScT-8" target="fVfCCpdempKYAxnG8ScT-12">
          <mxGeometry width="50" height="50" relative="1" as="geometry">
            <mxPoint x="259" y="680" as="sourcePoint" />
            <mxPoint x="346" y="800" as="targetPoint" />
          </mxGeometry>
        </mxCell>
        <mxCell id="fVfCCpdempKYAxnG8ScT-31" value="" style="endArrow=classic;html=1;rounded=0;entryX=0.87;entryY=0.14;entryDx=0;entryDy=0;entryPerimeter=0;" edge="1" parent="1" source="fVfCCpdempKYAxnG8ScT-12" target="fVfCCpdempKYAxnG8ScT-8">
          <mxGeometry width="50" height="50" relative="1" as="geometry">
            <mxPoint x="835" y="815" as="sourcePoint" />
            <mxPoint x="868" y="740" as="targetPoint" />
          </mxGeometry>
        </mxCell>
        <mxCell id="fVfCCpdempKYAxnG8ScT-32" value="Read" style="text;html=1;align=center;verticalAlign=middle;whiteSpace=wrap;rounded=0;" vertex="1" parent="1">
          <mxGeometry x="70" y="710" width="60" height="30" as="geometry" />
        </mxCell>
        <mxCell id="fVfCCpdempKYAxnG8ScT-33" value="Write" style="text;html=1;align=center;verticalAlign=middle;whiteSpace=wrap;rounded=0;" vertex="1" parent="1">
          <mxGeometry x="300" y="710" width="60" height="30" as="geometry" />
        </mxCell>
        <mxCell id="fVfCCpdempKYAxnG8ScT-34" value="&lt;font color=&quot;#cccc00&quot;&gt;CMD&lt;/font&gt;&lt;font color=&quot;#33001a&quot;&gt;+&lt;/font&gt;&lt;font color=&quot;#007fff&quot;&gt;MSG&lt;/font&gt;" style="text;html=1;align=center;verticalAlign=middle;whiteSpace=wrap;rounded=0;" vertex="1" parent="1">
          <mxGeometry x="200" y="865" width="60" height="30" as="geometry" />
        </mxCell>
        <mxCell id="fVfCCpdempKYAxnG8ScT-35" value="&lt;font color=&quot;#00cc00&quot;&gt;PKG&lt;/font&gt;" style="text;html=1;align=center;verticalAlign=middle;whiteSpace=wrap;rounded=0;" vertex="1" parent="1">
          <mxGeometry x="330" y="710" width="60" height="30" as="geometry" />
        </mxCell>
        <mxCell id="fVfCCpdempKYAxnG8ScT-36" value="&lt;font color=&quot;#00cc00&quot;&gt;PKG&lt;/font&gt;" style="text;html=1;align=center;verticalAlign=middle;whiteSpace=wrap;rounded=0;" vertex="1" parent="1">
          <mxGeometry x="100" y="710" width="60" height="30" as="geometry" />
        </mxCell>
        <mxCell id="fVfCCpdempKYAxnG8ScT-37" value="&lt;font color=&quot;#ff8000&quot;&gt;SIGNAL&lt;/font&gt;" style="text;html=1;align=center;verticalAlign=middle;whiteSpace=wrap;rounded=0;" vertex="1" parent="1">
          <mxGeometry x="200" y="785" width="60" height="30" as="geometry" />
        </mxCell>
        <mxCell id="fVfCCpdempKYAxnG8ScT-38" value="&lt;font color=&quot;#cccc00&quot;&gt;CMD&lt;/font&gt;&lt;font color=&quot;#33001a&quot;&gt;+&lt;/font&gt;&lt;font color=&quot;#007fff&quot;&gt;MSG&lt;/font&gt;" style="text;html=1;align=center;verticalAlign=middle;whiteSpace=wrap;rounded=0;" vertex="1" parent="1">
          <mxGeometry x="-40" y="815" width="60" height="30" as="geometry" />
        </mxCell>
        <mxCell id="fVfCCpdempKYAxnG8ScT-39" value="&lt;font color=&quot;#cccc00&quot;&gt;CMD&lt;/font&gt;&lt;font color=&quot;#33001a&quot;&gt;+&lt;/font&gt;&lt;font color=&quot;#007fff&quot;&gt;MSG&lt;/font&gt;" style="text;html=1;align=center;verticalAlign=middle;whiteSpace=wrap;rounded=0;" vertex="1" parent="1">
          <mxGeometry x="570" y="877.5" width="60" height="30" as="geometry" />
        </mxCell>
        <mxCell id="fVfCCpdempKYAxnG8ScT-40" value="&lt;font color=&quot;#00cc00&quot;&gt;PKG&lt;/font&gt;" style="text;html=1;align=center;verticalAlign=middle;whiteSpace=wrap;rounded=0;" vertex="1" parent="1">
          <mxGeometry x="570" y="770" width="60" height="30" as="geometry" />
        </mxCell>
        <mxCell id="fVfCCpdempKYAxnG8ScT-41" value="Write" style="text;html=1;align=center;verticalAlign=middle;whiteSpace=wrap;rounded=0;" vertex="1" parent="1">
          <mxGeometry x="765" y="752.5" width="60" height="30" as="geometry" />
        </mxCell>
        <mxCell id="fVfCCpdempKYAxnG8ScT-42" value="Read" style="text;html=1;align=center;verticalAlign=middle;whiteSpace=wrap;rounded=0;" vertex="1" parent="1">
          <mxGeometry x="920" y="752.5" width="60" height="30" as="geometry" />
        </mxCell>
      </root>
    </mxGraphModel>
  </diagram>
</mxfile>
